<svg width="50" height="50" viewBox="0 0 50 50" fill="none" xmlns="http://www.w3.org/2000/svg">
<path d="M6.25 16.6667V20.8333V22.9167V29.1667V31.25V41.6667V43.75C6.25 46.0521 8.11542 47.9167 10.4167 47.9167H39.5833C41.8854 47.9167 43.75 46.0521 43.75 43.75V41.6667V31.25V22.9167V16.6667H6.25Z" fill="#16A085"/>
<path d="M6.25 14.5833V18.75V20.8333V27.0833V29.1667V39.5833V41.6667C6.25 43.9583 8.11542 45.8333 10.4167 45.8333H39.5833C41.8854 45.8333 43.75 43.9583 43.75 41.6667V39.5833V29.1667V20.8333V14.5833H6.25Z" fill="#ECF0F1"/>
<path d="M6.25 12.5V16.6667V18.75V25V27.0833V37.5V39.5833C6.25 41.875 8.11542 43.75 10.4167 43.75H39.5833C41.8854 43.75 43.75 41.875 43.75 39.5833V37.5V27.0833V18.75V12.5H6.25Z" fill="#BDC3C7"/>
<path d="M6.25 10.4167V14.5833V16.6667V22.9167V25V35.4167V37.5C6.25 39.7917 8.11542 41.6667 10.4167 41.6667H39.5833C41.8854 41.6667 43.75 39.7917 43.75 37.5V35.4167V25V16.6667V10.4167H6.25Z" fill="#ECF0F1"/>
<path d="M10.4167 2.08334C8.11542 2.08334 6.25 3.94875 6.25 6.25V8.33333V16.6667V20.8333V22.9167V29.1667V31.25V41.6667V43.75C6.25 46.0521 8.11542 47.9167 10.4167 47.9167H14.5833V45.8333H11.4583C9.7325 45.8333 8.33333 44.4333 8.33333 42.7083C8.33333 40.9833 9.7325 39.5833 11.4583 39.5833H37.5H39.5833C41.8854 39.5833 43.75 37.7187 43.75 35.4167V33.3333V22.9167V14.5833V8.33333V6.25C43.75 3.94875 41.8854 2.08334 39.5833 2.08334H31.25H10.4167Z" fill="#16A085"/>
<path d="M16.6665 2.08334V39.5833H18.7498H37.4998H39.5832C41.8853 39.5833 43.7498 37.7188 43.7498 35.4167V33.3333V22.9167V14.5833V8.33334V6.25C43.7498 3.94875 41.8853 2.08334 39.5832 2.08334H31.2498H18.7498H16.6665Z" fill="#1ABC9C"/>
</svg>
