<svg width="50" height="50" viewBox="0 0 50 50" fill="none" xmlns="http://www.w3.org/2000/svg">
<path d="M45.2044 27.6063C44.101 26.1964 38.8524 20.8738 41.117 15.0989C41.117 15.0989 35.7578 19.2885 37.7694 25.3579C36.8408 24.0079 28.0227 19.4026 28.7569 2.41608C28.7569 2.41608 28.2002 2.96567 27.3477 3.93027V47.5001C32.2101 47.3641 35.8712 45.8999 35.8712 45.8999C35.8712 45.8999 49.9999 38.8017 45.2044 27.6063Z" fill="#D2623E"/>
<path d="M18.2528 23.1095C18.2528 23.1095 19.6472 34.3536 24.2947 36.1546C24.2947 36.1546 15.0003 33.9048 13.1409 22.6586C12.6772 24.0086 4.29153e-05 36.2398 17.7532 45.6737C21.0289 47.1809 24.4082 47.5839 27.3478 47.5015V3.93097C24.4864 7.17074 18.2528 15.1384 18.2528 23.1095Z" fill="#EC6C51"/>
</svg>
