<svg width="80" height="80" viewBox="0 0 80 80" fill="none" xmlns="http://www.w3.org/2000/svg">
<path d="M40 80C39.7327 80 39.4655 79.9444 39.2182 79.8315L1.03636 62.4586C0.403636 62.1702 0 61.5604 0 60.8898V7.03382C0 6.43793 0.32 5.88373 0.847273 5.56407C1.37273 5.24615 2.03636 5.20967 2.6 5.46505L40 22.4818L77.4 5.46331C77.9636 5.20967 78.6236 5.24441 79.1509 5.56407C79.68 5.88373 80 6.43793 80 7.03382V60.8898C80 61.5604 79.5964 62.1702 78.9636 62.4586L40.7818 79.8315C40.5345 79.9444 40.2673 80 40 80ZM3.63636 59.7918L40 76.3378L76.3636 59.7918V9.78569L40.7818 25.9755C40.2891 26.1996 39.7127 26.1996 39.22 25.9755L3.63636 9.78569V59.7918Z" fill="black"/>
<path d="M39.9995 17.7268L8.30313 3.3056C7.39586 2.89212 7.01222 1.85496 7.44313 0.989792C7.87586 0.122884 8.9595 -0.24021 9.86677 0.166316L39.9995 13.8787L70.1322 0.166316C71.0413 -0.24021 72.1231 0.122884 72.5559 0.989792C72.9868 1.85496 72.6031 2.89212 71.6959 3.3056L39.9995 17.7268Z" fill="black"/>
<path d="M41.818 24.4067H38.1816V78.2627H41.818V24.4067Z" fill="black"/>
</svg>
