<svg width="50" height="50" viewBox="0 0 50 50" fill="none" xmlns="http://www.w3.org/2000/svg">
<path d="M43.1094 25.8281C43.25 27.0469 42.7657 28.2344 41.8125 29L32.0625 36.7812L25 42.625L20.8438 46.0625C20.1719 46.6094 19.3907 46.875 18.5938 46.875C17.8438 46.875 17.0938 46.625 16.4532 46.125C15.125 45.0938 14.7032 43.3906 15.4063 41.8594L19.7969 32.4531C19.8594 32.3281 19.8438 32.2187 19.8125 32.1562C19.7969 32.0781 19.7344 31.9844 19.6094 31.9375L8.89066 26.9375C7.78128 26.4219 7.03128 25.3906 6.89066 24.1719C6.75003 22.9531 7.23441 21.7656 8.18753 21L17.9375 13.2187L25 7.375L29.1563 3.9375C30.4532 2.875 32.2188 2.84375 33.5469 3.875C34.875 4.90625 35.2969 6.60937 34.5938 8.14062L30.2032 17.5469C30.1407 17.6719 30.1563 17.7812 30.1875 17.8437C30.2032 17.9219 30.2657 18.0156 30.3907 18.0625L41.1094 23.0625C42.2188 23.5781 42.9688 24.6094 43.1094 25.8281Z" fill="#FBC34E"/>
<g opacity="0.05">
<path d="M43.1094 25.8281C43.25 27.0469 42.7656 28.2344 41.8125 29L32.0625 36.7812L25 42.625V7.375L29.1562 3.9375C30.4531 2.875 32.2187 2.84375 33.5469 3.875C34.875 4.90625 35.2969 6.60937 34.5937 8.14062L30.2031 17.5469C30.1406 17.6719 30.1562 17.7812 30.1875 17.8437C30.2031 17.9219 30.2656 18.0156 30.3906 18.0625L41.1094 23.0625C42.2188 23.5781 42.9688 24.6094 43.1094 25.8281Z" fill="black"/>
</g>
</svg>
